<?xml version="1.0" encoding="utf-8"?>
<!-- Generator: Adobe Illustrator 22.1.0, SVG Export Plug-In . SVG Version: 6.00 Build 0)  -->
<svg version="1.1" id="Capa_1" xmlns="http://www.w3.org/2000/svg" xmlns:xlink="http://www.w3.org/1999/xlink" x="0px" y="0px"
	 viewBox="0 0 512 512" style="enable-background:new 0 0 512 512;" xml:space="preserve">
<style type="text/css">
	.st0{fill:url(#SVGID_1_);}
	.st1{fill:url(#SVGID_2_);}
</style>
<g>
	<g>
		<g>
			<linearGradient id="SVGID_1_" gradientUnits="userSpaceOnUse" x1="0" y1="256.0021" x2="512.0046" y2="256.0021">
				<stop  offset="0" style="stop-color:#188AC7"/>
				<stop  offset="1" style="stop-color:#85B8DC"/>
			</linearGradient>
			<path class="st0" d="M506.6,235.9L217.3,70.4c-22.3-12.8-52.9-5.9-67.6,15.2l-56,80.1c-5.5,7.9-8.4,17.1-8.4,26.7
				c0,16.6,8.9,32,23.3,40.3l61,35.2l-11,14.7c-6,8-9.3,17.8-9.3,27.8c0,10.2,3.7,19.9,9.8,27.8l-16.2,24.4H64v-32.1
				c0-5.9-4.8-10.6-10.7-10.6H10.7C4.8,320,0,324.7,0,330.6v106.8c0,5.9,4.8,10.7,10.7,10.7h42.7c5.9,0,10.7-4.8,10.7-10.7v-10.7
				h78.9c21.4,0,41.4-10.7,53.3-28.5l17.5-26.3c3.4,0.7,6.8,1.4,10.2,1.4c17,0,33-9,41.7-23.6l11.7-19.6l90.8,52.4
				c1.6,0.9,3.5,1.4,5.3,1.4c1,0,2.1-0.1,3.1-0.4c2.8-0.9,5.2-2.8,6.5-5.5l7.9-15.8c1.3,0.1,2.5,0.4,3.9,0.4
				c41.2,0,74.7-33.5,74.7-74.7c0-4.5-0.7-9.2-1.7-14l38.4-19.2c3.5-1.8,5.8-5.3,5.9-9.3C512.1,241.5,510,237.8,506.6,235.9z
				 M42.7,426.7H21.3v-85.3h21.3L42.7,426.7L42.7,426.7z M178.4,386.4c-7.9,11.9-21.2,19-35.5,19H64V384h78.9
				c7.2,0,13.8-3.6,17.8-9.5l14.8-22.2l18.3,11L178.4,386.4z M247.2,338.8c-7.5,12.4-25,16.8-37.4,9.4l-27.1-16.2
				c-7.5-4.5-12.1-12.7-12.1-21.4c0-5.4,1.8-10.7,5-14.9l12.6-16.8l70.6,40.7L247.2,338.8z M368.9,358.5l-249.6-144
				c-7.8-4.5-12.6-12.8-12.6-21.8c0-5.2,1.6-10.2,4.6-14.4l26.8-38.3l264,152.3L368.9,358.5z M401.6,340.7l22.3-44.7l23.7-11.8
				c0.1,1.3,0.4,2.7,0.4,3.9C448,315.1,427.7,337.2,401.6,340.7z M416.4,275.9L150.3,122.4l17-24.2c5.6-8,14.8-12.8,24.6-12.8
				c5.2,0,10.4,1.4,14.9,4l272,155.4L416.4,275.9z"/>
			<linearGradient id="SVGID_2_" gradientUnits="userSpaceOnUse" x1="341.335" y1="309.335" x2="362.669" y2="309.335">
				<stop  offset="0" style="stop-color:#188AC7"/>
				<stop  offset="1" style="stop-color:#85B8DC"/>
			</linearGradient>
			<circle class="st1" cx="352" cy="309.3" r="10.7"/>
		</g>
	</g>
</g>
</svg>
