<svg data-name="Слой 1" xmlns="http://www.w3.org/2000/svg" xmlns:xlink="http://www.w3.org/1999/xlink" viewBox="0 0 50 43.36"><defs><linearGradient id="a" x1="1.5" y1="22.82" x2="51.5" y2="22.82" gradientUnits="userSpaceOnUse"><stop offset="0" stop-color="#188ac7"/><stop offset="1" stop-color="#85b8dc"/></linearGradient><linearGradient id="b" x1="43.51" y1="14.04" x2="45.78" y2="14.04" xlink:href="#a"/></defs><path d="M50.5 12.32L40.32 2.14a3.4 3.4 0 0 0-4.82 0l-2.39 2.39a3.46 3.46 0 0 0-.8 1.26l-11.19-2a9.34 9.34 0 0 0-11 7.3l-.51 2.56a5.23 5.23 0 1 0 10.29 2.07l.32-1.57 5 .44L38.34 27.7l2.37 2.37A1.23 1.23 0 1 1 39 31.82l-6.36-6.37A1.14 1.14 0 0 0 31 27.06l6.37 6.36a1.23 1.23 0 0 1 .36.87 1.27 1.27 0 0 1-.36.88 1.24 1.24 0 0 1-1.75 0l-6.36-6.37a1.14 1.14 0 1 0-1.61 1.61L34 36.77a1.24 1.24 0 0 1 0 1.75 1.27 1.27 0 0 1-.88.36 1.23 1.23 0 0 1-.87-.36l-6.36-6.37a1.14 1.14 0 0 0-1.61 1.61l6.37 6.36a1.23 1.23 0 0 1-1.75 1.74L6.41 19.35l-3-3A1.14 1.14 0 0 0 1.83 18l3 3L8 24.19 6.26 26a3.08 3.08 0 0 0 0 4.37l.58.58a3.07 3.07 0 0 0 1.88.89 3.07 3.07 0 0 0 .89 1.88l.58.58a3.1 3.1 0 0 0 1.88.89 3.07 3.07 0 0 0 .93 1.86l.58.58a3.07 3.07 0 0 0 1.88.89 3.07 3.07 0 0 0 .89 1.88l.58.58a3.1 3.1 0 0 0 4.37 0L23 39.2l4.28 4.27a3.5 3.5 0 0 0 6-2.33 3.49 3.49 0 0 0 3.35-3.35A3.49 3.49 0 0 0 40 34.44a3.5 3.5 0 0 0 2.33-6l-1.58-1.54 5.75-5.76 4-4a3.41 3.41 0 0 0 0-4.82zM7.86 28.74a.82.82 0 0 1 0-1.16l1.68-1.67 1.74 1.74-1.67 1.68a.82.82 0 0 1-1.16 0zm3.35 3.35a.82.82 0 0 1 0-1.16l1.67-1.67L14.63 31 13 32.68a.83.83 0 0 1-1.17 0zm3.35 3.35a.83.83 0 0 1-.24-.58.84.84 0 0 1 .24-.58l1.67-1.67L18 34.35 16.31 36a.83.83 0 0 1-1.17 0l-.58-.59zm5.1 3.93a.82.82 0 0 1-1.17 0l-.58-.58a.82.82 0 0 1 0-1.16L19.58 36l1.75 1.74-1.67 1.67zm19.48-14.08L26.55 12.7a1.12 1.12 0 0 0-.71-.33l-6.44-.57h-.1a1.14 1.14 0 0 0-1.11.91l-.51 2.56a3 3 0 0 1-3.49 2.32 2.93 2.93 0 0 1-1.88-1.27 2.9 2.9 0 0 1-.44-2.22l.52-2.56A7.06 7.06 0 0 1 20.7 6l11 2 1.36 1.35 11 11zm9.76-9.76l-3.2 3.2-11-11a1.16 1.16 0 0 1-.33-.81 1.18 1.18 0 0 1 .33-.81l2.4-2.39a1.14 1.14 0 0 1 .8-.33 1.16 1.16 0 0 1 .81.33l10.19 10.2a1.16 1.16 0 0 1 .33.81 1.14 1.14 0 0 1-.33.8z" transform="translate(-1.5 -1.14)" fill="url(#a)"/><circle cx="44.65" cy="14.04" r="1.13" fill="url(#b)"/></svg>