<svg data-name="Capa 1" xmlns="http://www.w3.org/2000/svg" xmlns:xlink="http://www.w3.org/1999/xlink" viewBox="0 0 50 50"><defs><linearGradient id="a" y1="26.67" x2="50" y2="26.67" gradientUnits="userSpaceOnUse"><stop offset="0" stop-color="#188ac7"/><stop offset="1" stop-color="#85b8dc"/></linearGradient><linearGradient id="b" x1="3.91" y1="26.67" x2="46.02" y2="26.67" xlink:href="#a"/><linearGradient id="c" x1="41.1" y1="29.81" x2="43.08" y2="29.81" xlink:href="#a"/><linearGradient id="d" x1="15.86" y1="29.31" x2="34.14" y2="29.31" xlink:href="#a"/><linearGradient id="e" x1="28.42" y1="19.58" x2="30.42" y2="19.58" xlink:href="#a"/></defs><path d="M48.5 23L28.64 3.17a5.17 5.17 0 0 0-7.28 0L1.5 23a5.17 5.17 0 0 0 0 7.28l19.86 19.88a5.14 5.14 0 0 0 7.28 0L48.5 30.31a5.17 5.17 0 0 0 0-7.28zm-1.38 5.9L27.26 48.78a3.21 3.21 0 0 1-4.52 0L2.88 28.93a3.21 3.21 0 0 1 0-4.52L22.74 4.55a3.21 3.21 0 0 1 4.52 0l19.86 19.86a3.21 3.21 0 0 1 0 4.52z" transform="translate(0 -1.67)" fill="url(#a)"/><path d="M45.74 25.79L25.88 5.93a1.26 1.26 0 0 0-1.76 0L4.26 25.79a1.26 1.26 0 0 0 0 1.75L24.12 47.4a1.26 1.26 0 0 0 1.76 0l14.35-14.35.52-.52a1 1 0 1 0-1.38-1.39l-.52.53L25 45.52 6.15 26.67 25 7.82l19.35 19.35a1 1 0 0 0 1.39 0 1 1 0 0 0 0-1.38z" transform="translate(0 -1.67)" fill="url(#b)"/><path d="M42.79 29.1a1 1 0 0 0-1.38 0 1 1 0 0 0 0 1.38 1 1 0 0 0 1.38 0 1 1 0 0 0 0-1.38z" transform="translate(0 -1.67)" fill="url(#c)"/><path d="M33.16 18.6a1 1 0 0 0-1 1v3.35h-5a1 1 0 0 0-1 1v14.1h-2.35V23.91a1 1 0 0 0-1-1h-5v-2.35h8.75a1 1 0 0 0 0-2h-9.72a1 1 0 0 0-1 1v4.33a1 1 0 0 0 1 1h5V39a1 1 0 0 0 1 1h4.32a1 1 0 0 0 1-1V24.89h5a1 1 0 0 0 1-1v-4.31a1 1 0 0 0-1-.98z" transform="translate(0 -1.67)" fill="url(#d)"/><path d="M29.44 18.6a1 1 0 0 0 0 2 1 1 0 1 0 0-2z" transform="translate(0 -1.67)" fill="url(#e)"/></svg>