<?xml version="1.0" encoding="utf-8"?>
<!-- Generator: Adobe Illustrator 22.1.0, SVG Export Plug-In . SVG Version: 6.00 Build 0)  -->
<svg version="1.1" id="Capa_1" xmlns="http://www.w3.org/2000/svg" xmlns:xlink="http://www.w3.org/1999/xlink" x="0px" y="0px"
	 viewBox="0 0 512 512" style="enable-background:new 0 0 512 512;" xml:space="preserve">
<style type="text/css">
	.st0{fill:url(#SVGID_1_);}
	.st1{fill:url(#SVGID_2_);}
	.st2{fill:url(#SVGID_3_);}
	.st3{fill:url(#SVGID_4_);}
	.st4{fill:url(#SVGID_5_);}
	.st5{fill:url(#SVGID_6_);}
	.st6{fill:url(#SVGID_7_);}
</style>
<g>
	<g>
		<g>
			<linearGradient id="SVGID_1_" gradientUnits="userSpaceOnUse" x1="170.667" y1="162.1333" x2="341.333" y2="162.1333">
				<stop  offset="0" style="stop-color:#188AC7"/>
				<stop  offset="1" style="stop-color:#85B8DC"/>
			</linearGradient>
			<path class="st0" d="M256,102.4c-20,0-85.3,1.8-85.3,25.6v85.3c0,4.3,3.3,8,7.6,8.5c4.3,0.5,8.3-2.3,9.3-6.6
				c4.8-3.8,28.8-10.4,68.5-10.4s63.7,6.7,68.5,10.4c1,4.2,5,7.1,9.3,6.6s7.6-4.1,7.6-8.5V128C341.3,104.2,276,102.4,256,102.4z
				 M324.3,196.4c-20.8-7.8-54.8-8.6-68.3-8.6s-47.5,0.8-68.3,8.6v-66.6c5.2-3.8,29.1-10.3,68.3-10.3s63,6.5,68.3,10.3V196.4z"/>
			<linearGradient id="SVGID_2_" gradientUnits="userSpaceOnUse" x1="170.667" y1="426.667" x2="341.333" y2="426.667">
				<stop  offset="0" style="stop-color:#188AC7"/>
				<stop  offset="1" style="stop-color:#85B8DC"/>
			</linearGradient>
			<path class="st1" d="M170.7,384v68.3c0,20.8,49.9,24.8,75.8,25.5c0.3,0.1,0.6,0.1,1,0.1c0.3,0,0.5-0.1,0.7-0.1
				c3,0.1,5.7,0.1,7.8,0.1c20,0,85.3-1.8,85.3-25.6V384c0-4.7-3.8-8.5-8.5-8.5H179.2C174.5,375.5,170.7,379.3,170.7,384z
				 M324.3,392.5v58c-4.9,3.6-26.5,9.5-61.6,10.1l40.9-68.1L324.3,392.5L324.3,392.5z M283.6,392.5l-40.8,68
				c-8.1-0.3-15.3-0.9-21.7-1.7l39.7-66.3H283.6z M187.7,392.5h53.2L203,455.8c-5.3-0.9-10.5-2.7-15.3-5.3L187.7,392.5L187.7,392.5z
				"/>
			<linearGradient id="SVGID_3_" gradientUnits="userSpaceOnUse" x1="247.4675" y1="341.3227" x2="264.533" y2="341.3227">
				<stop  offset="0" style="stop-color:#188AC7"/>
				<stop  offset="1" style="stop-color:#85B8DC"/>
			</linearGradient>
			<path class="st2" d="M259.2,333.5c-0.5-0.2-1-0.4-1.5-0.5c-1.1-0.3-2.3-0.3-3.4,0c-0.5,0.1-1.1,0.3-1.5,0.5
				c-0.5,0.2-1.1,0.4-1.5,0.8c-0.4,0.3-0.9,0.7-1.3,1c-0.8,0.8-1.4,1.8-1.8,2.8c-0.9,2.1-0.9,4.4,0,6.5c0.4,1,1,2,1.8,2.8
				c0.4,0.3,0.9,0.7,1.3,1c0.5,0.3,1,0.6,1.5,0.8c0.5,0.2,1,0.4,1.5,0.5c1.1,0.2,2.3,0.2,3.4,0c0.5-0.1,1.1-0.3,1.5-0.5
				c0.5-0.2,1.1-0.4,1.5-0.8c0.4-0.3,0.9-0.7,1.3-1c3.3-3.4,3.3-8.8,0-12.1c-0.4-0.4-0.8-0.7-1.3-1
				C260.3,333.9,259.8,333.7,259.2,333.5z"/>
			<linearGradient id="SVGID_4_" gradientUnits="userSpaceOnUse" x1="102.3992" y1="255.9999" x2="409.6017" y2="255.9999">
				<stop  offset="0" style="stop-color:#188AC7"/>
				<stop  offset="1" style="stop-color:#85B8DC"/>
			</linearGradient>
			<path class="st3" d="M408.6,208.2c2.7-8.1-0.1-17.1-6.9-22.2l-26.2-19.6v-55.5c0-15.9-3.4-31.7-10-46.1c-1.1-2.5-2.4-4.9-3.7-7.3
				c-9.2-16.8-22.6-30.9-38.9-41l0,0l0,0C305.3,5.7,285.1,0,264.5,0h-17.1C227,0,207,5.6,189.6,16.2l-0.1,0
				c-0.1,0.1-0.3,0.2-0.4,0.2c-18.7,11.6-33.5,28.4-42.6,48.3l-0.1,0.3l0,0.1c-6.5,14.4-9.8,30-9.8,45.7v55.5L110.4,186
				c-6.8,5.1-9.6,14.1-6.9,22.2s10.3,13.6,18.9,13.6h14.3v213.3c0,42.4,34.4,76.8,76.8,76.8h85.3c42.4,0,76.8-34.4,76.8-76.8V221.9
				h14.3C398.3,221.9,405.9,216.4,408.6,208.2z M136.5,204.8h-14.3c-1.2,0-2.3-0.8-2.7-2s0-2.4,1-3.2l15.9-12L136.5,204.8
				L136.5,204.8z M319.4,35c1.3,0.9,2.6,1.8,3.8,2.7c1,0.8,2,1.5,2.9,2.4c3.1,2.6,6,5.5,8.7,8.5l0.2,0.2c2.7,3.1,5.2,6.4,7.5,9.8
				c0.7,1,1.3,2.1,2,3.2c0.8,1.3,1.5,2.7,2.3,4.1c-3,1.5-6.3,2.3-9.6,2.3c-11.8,0-21.3-9.6-21.3-21.3C315.7,42.7,317,38.5,319.4,35z
				 M192.5,35.1c2.4,3.5,3.7,7.6,3.8,11.9c0,11.8-9.6,21.3-21.3,21.3c-3.3,0-6.6-0.8-9.6-2.4C172,53.7,181.3,43.2,192.5,35.1z
				 M153.6,247.5l6.8,5.1c6.4,4.8,10.2,12.4,10.2,20.5v17.1h-17.1V247.5z M153.6,307.2h17.1v20c0,6.8-2.7,13.3-7.5,18.1l-9.6,9.6
				V307.2z M358.4,354.9l-9.6-9.6c-4.8-4.8-7.5-11.3-7.5-18.1v-20h17.1V354.9z M358.4,290.1h-17.1v-17.1c0-8.1,3.8-15.6,10.2-20.5
				l6.8-5.1L358.4,290.1L358.4,290.1z M358.4,226.1l-17.1,12.8c-10.7,8.1-17,20.7-17.1,34.1v54.1c0,11.3,4.5,22.2,12.5,30.2
				l21.6,21.6v56.2c0,33-26.8,59.7-59.7,59.7h-85.3c-33,0-59.7-26.8-59.7-59.7V379l21.6-21.6c8-8,12.5-18.8,12.5-30.2v-54.1
				c0-13.4-6.3-26.1-17.1-34.1l-17.1-12.8V110.9c0-10,1.6-20,4.7-29.5c5.2,2.6,10.8,3.9,16.6,3.9c21.2,0,38.4-17.2,38.4-38.4
				c0-7.4-2.1-14.6-6.1-20.7c12.6-6,26.3-9.1,40.3-9.1h17.1c13.9,0,27.7,3.2,40.3,9.2c-4,6.2-6.1,13.4-6.1,20.7
				c0,21.2,17.2,38.4,38.4,38.4c5.8,0,11.4-1.4,16.6-3.9c3.1,9.5,4.7,19.5,4.7,29.5L358.4,226.1L358.4,226.1z M389.7,204.8h-14.3
				v-17.1l15.9,12c0.7,0.5,1.1,1.4,1.1,2.3C392.5,203.5,391.3,204.8,389.7,204.8z"/>
			<linearGradient id="SVGID_5_" gradientUnits="userSpaceOnUse" x1="232.1914" y1="309.0785" x2="279.8101" y2="309.0785">
				<stop  offset="0" style="stop-color:#188AC7"/>
				<stop  offset="1" style="stop-color:#85B8DC"/>
			</linearGradient>
			<path class="st4" d="M271.3,319.4c3.9,0,7.4-2.7,8.3-6.5s-0.9-7.8-4.4-9.6c-12.1-6.1-26.3-6.1-38.4,0c-2.7,1.4-4.5,4.1-4.6,7.2
				c-0.1,3,1.4,5.9,3.9,7.6s5.8,1.8,8.5,0.4c7.1-3.6,15.6-3.6,22.7,0C268.6,319.1,269.9,319.4,271.3,319.4z"/>
			<linearGradient id="SVGID_6_" gradientUnits="userSpaceOnUse" x1="216.9348" y1="276.7133" x2="295.0878" y2="276.7133">
				<stop  offset="0" style="stop-color:#188AC7"/>
				<stop  offset="1" style="stop-color:#85B8DC"/>
			</linearGradient>
			<path class="st5" d="M286.5,288.9c3.9,0,7.4-2.7,8.3-6.5c0.9-3.8-0.9-7.8-4.4-9.6c-21.7-10.9-47.2-10.9-68.9,0
				c-4.2,2.1-5.8,7.3-3.7,11.5s7.3,5.9,11.5,3.7c16.8-8.4,36.6-8.4,53.4,0C283.9,288.5,285.2,288.9,286.5,288.9z"/>
			<linearGradient id="SVGID_7_" gradientUnits="userSpaceOnUse" x1="201.6413" y1="244.3371" x2="310.3577" y2="244.3371">
				<stop  offset="0" style="stop-color:#188AC7"/>
				<stop  offset="1" style="stop-color:#85B8DC"/>
			</linearGradient>
			<path class="st6" d="M301.8,258.2c4,0,7.4-2.7,8.3-6.6s-0.9-7.8-4.5-9.6c-31.3-15.5-68-15.5-99.3,0c-4.2,2.1-5.9,7.2-3.8,11.4
				c2.1,4.2,7.2,5.9,11.4,3.8c26.5-13.1,57.5-13.1,84,0C299.2,257.9,300.5,258.2,301.8,258.2z"/>
		</g>
	</g>
</g>
</svg>
